# xmcd
# 
# Track frame offsets:
#     150
#     15870
#     36422
#     52262
# 
# Disc length: 879
# 
# Revision: 1
# Processed by: cddbd v1.5.2PL0 Copyright (c) Steve Scherf et al.
# Submitted via: fre:ac v1.0.31
# 
DISCID=2c036d04
DTITLE=Klaus and Klaus - Aloha Heya He (Maxi)
DYEAR=2003
DGENRE=Schlager
TTITLE0=Aloha Heya He (Radio Version)
TTITLE1=Aloha Heya He (Extended Version)
TTITLE2=Aloha Heya He (Sansibar-Dance Version)
TTITLE3=Alle an die Ruder
EXTD=
EXTT0=
EXTT1=
EXTT2=
EXTT3=
PLAYORDER=
